<?xml version="1.0" encoding="utf-8"?>
<!-- Generator: Adobe Illustrator 19.0.0, SVG Export Plug-In . SVG Version: 6.00 Build 0)  -->
<svg version="1.1" id="Layer_5" xmlns="http://www.w3.org/2000/svg" xmlns:xlink="http://www.w3.org/1999/xlink" x="0px" y="0px"
	 viewBox="0 0 256 256" style="enable-background:new 0 0 256 256;" xml:space="preserve">
<style type="text/css">
	.st0{fill:url(#XMLID_3_);}
	.st1{fill:url(#XMLID_4_);}
	.st2{fill:url(#XMLID_5_);}
	.st3{fill:url(#XMLID_6_);}
	.st4{fill:url(#XMLID_7_);}
	.st5{fill:url(#XMLID_8_);}
</style>
<g id="XMLID_1_">
	<linearGradient id="XMLID_3_" gradientUnits="userSpaceOnUse" x1="14.3333" y1="133.625" x2="243.0155" y2="133.625">
		<stop  offset="0" style="stop-color:#C0392B"/>
		<stop  offset="1" style="stop-color:#8E44AD"/>
	</linearGradient>
	<path id="XMLID_31_" class="st0" d="M245.2,162v-26c0-4.2-0.4-8.3-1-12.3c0-0.1,0-0.2-0.1-0.3c-6-35.6-37.1-62.8-74.4-62.8h-3.5
		v112.3h-11v-81c5.7-1.2,10-6.3,10-12.4v-6.3c0-7-5.7-12.7-12.7-12.7h-109c-7,0-12.7,5.7-12.7,12.7v6.3c0,6.1,4.3,11.1,10,12.4v12.6
		H14.3c-1.9,0-3.5,1.6-3.5,3.5s1.6,3.5,3.5,3.5h26.6v37.8H29.3c-1.9,0-3.5,1.6-3.5,3.5s1.6,3.5,3.5,3.5h11.5v5.1
		c0,10.2,8.3,18.5,18.5,18.5h0.9c0,0.1,0,0.2,0,0.3c0,8.3,4.4,15.5,11,19.6H13c-1.9,0-3.5,1.6-3.5,3.5s1.6,3.5,3.5,3.5h94.8
		c1.9,0,3.5-1.6,3.5-3.5s-1.6-3.5-3.5-3.5H95.2c6.6-4.1,11-11.3,11-19.6c0-0.1,0-0.2,0-0.3h45.5h3.5h11h3.5h8.5c0,0.1,0,0.2,0,0.3
		c0,8.3,4.4,15.5,11,19.6H175c-1.9,0-3.5,1.6-3.5,3.5s1.6,3.5,3.5,3.5h66.6c1.9,0,3.5-1.6,3.5-3.5s-1.6-3.5-3.5-3.5h-28.5
		c6.6-4.1,11-11.3,11-19.6c0-0.1,0-0.2,0-0.3h3.2C237.1,179.8,245.2,171.8,245.2,162z M37.8,79.5v-6.3c0-3.1,2.5-5.7,5.7-5.7h109
		c3.1,0,5.7,2.5,5.7,5.7v6.3c0,3.1-2.5,5.7-5.7,5.7h-109C40.4,85.2,37.8,82.6,37.8,79.5z M99.2,180.2c0,8.8-7.2,16-16,16
		s-16-7.2-16-16c0-0.1,0-0.2,0-0.3h2.7c0,0.1,0,0.2,0,0.3c0,7.4,6,13.3,13.3,13.3s13.3-6,13.3-13.3c0-0.1,0-0.2,0-0.3h2.7
		C99.2,179.9,99.2,180.1,99.2,180.2z M76.8,179.8h12.7c0,0.1,0,0.2,0,0.3c0,3.5-2.8,6.3-6.3,6.3s-6.3-2.8-6.3-6.3
		C76.8,180.1,76.8,179.9,76.8,179.8z M148.2,172.8H59.3c-6.3,0-11.5-5.2-11.5-11.5V92.2h100.3V172.8z M173.2,67.6
		c30.9,1.6,56.5,23.8,63.3,53.1h-47.7v-9.2c0-1.9-1.6-3.5-3.5-3.5s-3.5,1.6-3.5,3.5v31.8c0,1.9,1.6,3.5,3.5,3.5s3.5-1.6,3.5-3.5
		v-15.6h48.9c0.3,2.7,0.5,5.5,0.5,8.3v26c0,6-4.9,10.9-10.9,10.9h-54.1V67.6z M207.5,179.8c0,0.1,0,0.2,0,0.3c0,3.5-2.8,6.3-6.3,6.3
		s-6.3-2.8-6.3-6.3c0-0.1,0-0.2,0-0.3H207.5z M217.2,180.2c0,8.8-7.2,16-16,16s-16-7.2-16-16c0-0.1,0-0.2,0-0.3h2.7
		c0,0.1,0,0.2,0,0.3c0,7.4,6,13.3,13.3,13.3c7.4,0,13.3-6,13.3-13.3c0-0.1,0-0.2,0-0.3h2.7C217.2,179.9,217.2,180.1,217.2,180.2z"/>
	<linearGradient id="XMLID_4_" gradientUnits="userSpaceOnUse" x1="14.3333" y1="110.25" x2="243.0155" y2="110.25">
		<stop  offset="0" style="stop-color:#C0392B"/>
		<stop  offset="1" style="stop-color:#8E44AD"/>
	</linearGradient>
	<path id="XMLID_59_" class="st1" d="M78.3,123.7h38.5c7.4,0,13.4-6,13.4-13.4s-6-13.4-13.4-13.4H78.3c-7.4,0-13.4,6-13.4,13.4
		S70.9,123.7,78.3,123.7z M78.3,103.8h38.5c3.5,0,6.4,2.9,6.4,6.4s-2.9,6.4-6.4,6.4H78.3c-3.5,0-6.4-2.9-6.4-6.4
		S74.7,103.8,78.3,103.8z"/>
	<linearGradient id="XMLID_5_" gradientUnits="userSpaceOnUse" x1="14.3333" y1="132.5" x2="243.0155" y2="132.5">
		<stop  offset="0" style="stop-color:#C0392B"/>
		<stop  offset="1" style="stop-color:#8E44AD"/>
	</linearGradient>
	<path id="XMLID_60_" class="st2" d="M30.5,136c1.9,0,3.5-1.6,3.5-3.5s-1.6-3.5-3.5-3.5H14.3c-1.9,0-3.5,1.6-3.5,3.5
		s1.6,3.5,3.5,3.5H30.5z"/>
	<linearGradient id="XMLID_6_" gradientUnits="userSpaceOnUse" x1="14.3333" y1="203.25" x2="243.0155" y2="203.25">
		<stop  offset="0" style="stop-color:#C0392B"/>
		<stop  offset="1" style="stop-color:#8E44AD"/>
	</linearGradient>
	<path id="XMLID_61_" class="st3" d="M136.8,199.8h-17.3c-1.9,0-3.5,1.6-3.5,3.5s1.6,3.5,3.5,3.5h17.3c1.9,0,3.5-1.6,3.5-3.5
		S138.7,199.8,136.8,199.8z"/>
	<linearGradient id="XMLID_7_" gradientUnits="userSpaceOnUse" x1="14.3333" y1="203.25" x2="243.0155" y2="203.25">
		<stop  offset="0" style="stop-color:#C0392B"/>
		<stop  offset="1" style="stop-color:#8E44AD"/>
	</linearGradient>
	<path id="XMLID_62_" class="st4" d="M164.5,199.8h-17.3c-1.9,0-3.5,1.6-3.5,3.5s1.6,3.5,3.5,3.5h17.3c1.9,0,3.5-1.6,3.5-3.5
		S166.5,199.8,164.5,199.8z"/>
	<linearGradient id="XMLID_8_" gradientUnits="userSpaceOnUse" x1="14.3333" y1="44.75" x2="243.0155" y2="44.75">
		<stop  offset="0" style="stop-color:#C0392B"/>
		<stop  offset="1" style="stop-color:#8E44AD"/>
	</linearGradient>
	<path id="XMLID_63_" class="st5" d="M110,48.3h24c1.9,0,3.5-1.6,3.5-3.5s-1.6-3.5-3.5-3.5h-24c-1.9,0-3.5,1.6-3.5,3.5
		S108.1,48.3,110,48.3z"/>
</g>
</svg>
