<?xml version="1.0" encoding="utf-8"?>
<!-- Generator: Adobe Illustrator 19.0.0, SVG Export Plug-In . SVG Version: 6.00 Build 0)  -->
<svg version="1.1" id="Layer_2" xmlns="http://www.w3.org/2000/svg" xmlns:xlink="http://www.w3.org/1999/xlink" x="0px" y="0px"
	 viewBox="0 0 256 256" style="enable-background:new 0 0 256 256;" xml:space="preserve">
<style type="text/css">
	.st0{fill:url(#XMLID_3_);}
	.st1{fill:url(#XMLID_4_);}
	.st2{fill:url(#XMLID_5_);}
	.st3{fill:url(#XMLID_6_);}
	.st4{fill:url(#XMLID_7_);}
</style>
<g id="XMLID_1_">
	<linearGradient id="XMLID_3_" gradientUnits="userSpaceOnUse" x1="18" y1="128.3025" x2="238.6638" y2="128.3025">
		<stop  offset="0" style="stop-color:#C0392B"/>
		<stop  offset="1" style="stop-color:#8E44AD"/>
	</linearGradient>
	<path id="XMLID_26_" class="st0" d="M224.3,28.4H32.1c-9.9,0-17.9,8-17.9,17.9v117.3c0,9.9,8,17.9,17.9,17.9h72.5
		c-0.7,6.1-4.4,20.8-22.9,39.7h-17c-1.9,0-3.5,1.6-3.5,3.5s1.6,3.5,3.5,3.5h128c1.9,0,3.5-1.6,3.5-3.5s-1.6-3.5-3.5-3.5H176
		c-18.3-18.7-22.1-33.5-22.9-39.7h71.2c9.9,0,17.9-8,17.9-17.9V46.3C242.2,36.4,234.2,28.4,224.3,28.4z M32.1,35.4h192.2
		c6,0,10.9,4.9,10.9,10.9v98.8h-214V46.3C21.2,40.3,26.1,35.4,32.1,35.4z M166.4,221.2H91.2c16.4-18.5,19.8-33.1,20.4-39.7H146
		C146.6,188.1,150,202.7,166.4,221.2z M224.3,174.5H32.1c-6,0-10.9-4.9-10.9-10.9v-11.5h214v11.5
		C235.2,169.6,230.3,174.5,224.3,174.5z"/>
	<linearGradient id="XMLID_4_" gradientUnits="userSpaceOnUse" x1="18" y1="92.4239" x2="238.6638" y2="92.4239">
		<stop  offset="0" style="stop-color:#C0392B"/>
		<stop  offset="1" style="stop-color:#8E44AD"/>
	</linearGradient>
	<path id="XMLID_29_" class="st1" d="M120.8,122.9c0.3,0.1,0.5,0.1,0.8,0.1c1.6,0,3-1.1,3.4-2.7l12.4-54.2c0.4-1.9-0.7-3.8-2.6-4.2
		c-1.9-0.4-3.8,0.7-4.2,2.6l-12.4,54.2C117.7,120.6,118.9,122.5,120.8,122.9z"/>
	<linearGradient id="XMLID_5_" gradientUnits="userSpaceOnUse" x1="18" y1="93.7207" x2="238.6638" y2="93.7207">
		<stop  offset="0" style="stop-color:#C0392B"/>
		<stop  offset="1" style="stop-color:#8E44AD"/>
	</linearGradient>
	<path id="XMLID_30_" class="st2" d="M105.9,114.4c0.8,0,1.6-0.3,2.3-0.9c1.5-1.3,1.6-3.5,0.3-4.9l-14-16l13.8-13.5
		c1.4-1.4,1.4-3.6,0-4.9c-1.4-1.4-3.6-1.4-4.9,0L84.9,92.2l18.3,20.9C103.9,114,104.9,114.4,105.9,114.4z"/>
	<linearGradient id="XMLID_6_" gradientUnits="userSpaceOnUse" x1="18" y1="93.7208" x2="238.6638" y2="93.7208">
		<stop  offset="0" style="stop-color:#C0392B"/>
		<stop  offset="1" style="stop-color:#8E44AD"/>
	</linearGradient>
	<path id="XMLID_31_" class="st3" d="M162,92.6l-14,16c-1.3,1.5-1.1,3.7,0.3,4.9c0.7,0.6,1.5,0.9,2.3,0.9c1,0,1.9-0.4,2.6-1.2
		l18.3-20.9l-18.5-18.2c-1.4-1.4-3.6-1.3-4.9,0c-1.4,1.4-1.3,3.6,0,4.9L162,92.6z"/>
	<linearGradient id="XMLID_7_" gradientUnits="userSpaceOnUse" x1="18" y1="163.8931" x2="238.6638" y2="163.8931">
		<stop  offset="0" style="stop-color:#C0392B"/>
		<stop  offset="1" style="stop-color:#8E44AD"/>
	</linearGradient>
	<path id="XMLID_34_" class="st4" d="M128.6,157.7c-3.4,0-6.1,2.8-6.1,6.1c0,3.4,2.8,6.1,6.1,6.1s6.1-2.8,6.1-6.1
		C134.8,160.5,132,157.7,128.6,157.7z M128.6,164.7c-0.5,0-0.9-0.4-0.9-0.9c0-0.5,0.4-0.9,0.9-0.9c0.5,0,0.9,0.4,0.9,0.9
		C129.5,164.4,129.1,164.7,128.6,164.7z"/>
</g>
</svg>
