<?xml version="1.0" encoding="utf-8"?>
<!-- Generator: Adobe Illustrator 19.0.0, SVG Export Plug-In . SVG Version: 6.00 Build 0)  -->
<svg version="1.1" id="Layer_2_copy" xmlns="http://www.w3.org/2000/svg" xmlns:xlink="http://www.w3.org/1999/xlink" x="0px"
	 y="0px" viewBox="0 0 256 256" style="enable-background:new 0 0 256 256;" xml:space="preserve">
<style type="text/css">
	.st0{fill:url(#XMLID_3_);}
	.st1{fill:url(#XMLID_4_);}
	.st2{fill:url(#XMLID_5_);}
	.st3{fill:url(#XMLID_6_);}
	.st4{fill:url(#XMLID_7_);}
	.st5{fill:url(#XMLID_8_);}
</style>
<g id="XMLID_1_">
	<linearGradient id="XMLID_3_" gradientUnits="userSpaceOnUse" x1="17.5" y1="128.3025" x2="239.0023" y2="128.3025">
		<stop  offset="0" style="stop-color:#C0392B"/>
		<stop  offset="1" style="stop-color:#8E44AD"/>
	</linearGradient>
	<path id="XMLID_52_" class="st0" d="M224.3,28.4H32.1c-9.9,0-17.9,8-17.9,17.9v117.3c0,9.9,8,17.9,17.9,17.9h72.5
		c-0.7,6.1-4.4,20.8-22.9,39.7h-17c-1.9,0-3.5,1.6-3.5,3.5s1.6,3.5,3.5,3.5h128c1.9,0,3.5-1.6,3.5-3.5s-1.6-3.5-3.5-3.5H176
		c-18.3-18.7-22.1-33.5-22.9-39.7h71.2c9.9,0,17.9-8,17.9-17.9V46.3C242.2,36.4,234.2,28.4,224.3,28.4z M32.1,35.4h192.2
		c6,0,10.9,4.9,10.9,10.9v98.8h-214V46.3C21.2,40.3,26.1,35.4,32.1,35.4z M166.4,221.2H91.2c16.4-18.5,19.8-33.1,20.4-39.7H146
		C146.6,188.1,150,202.7,166.4,221.2z M224.3,174.5H32.1c-6,0-10.9-4.9-10.9-10.9v-11.5h214v11.5
		C235.2,169.6,230.3,174.5,224.3,174.5z"/>
	<linearGradient id="XMLID_4_" gradientUnits="userSpaceOnUse" x1="17.5" y1="163.8931" x2="239.0023" y2="163.8931">
		<stop  offset="0" style="stop-color:#C0392B"/>
		<stop  offset="1" style="stop-color:#8E44AD"/>
	</linearGradient>
	<path id="XMLID_57_" class="st1" d="M128.6,157.7c-3.4,0-6.1,2.8-6.1,6.1c0,3.4,2.8,6.1,6.1,6.1s6.1-2.8,6.1-6.1
		C134.8,160.5,132,157.7,128.6,157.7z M128.6,164.7c-0.5,0-0.9-0.4-0.9-0.9c0-0.5,0.4-0.9,0.9-0.9c0.5,0,0.9,0.4,0.9,0.9
		C129.5,164.4,129.1,164.7,128.6,164.7z"/>
	<linearGradient id="XMLID_5_" gradientUnits="userSpaceOnUse" x1="17.5" y1="110.875" x2="239.0023" y2="110.875">
		<stop  offset="0" style="stop-color:#C0392B"/>
		<stop  offset="1" style="stop-color:#8E44AD"/>
	</linearGradient>
	<path id="XMLID_58_" class="st2" d="M44,124h168c1.9,0,3.5-1.6,3.5-3.5s-1.6-3.5-3.5-3.5h-5.8v-15.8c0-1.9-1.6-3.5-3.5-3.5
		s-3.5,1.6-3.5,3.5V117h-7.9v-8c0-1.9-1.6-3.5-3.5-3.5s-3.5,1.6-3.5,3.5v8h-7.9v-15.8c0-1.9-1.6-3.5-3.5-3.5s-3.5,1.6-3.5,3.5V117
		h-7.9v-8c0-1.9-1.6-3.5-3.5-3.5s-3.5,1.6-3.5,3.5v8h-7.9v-15.8c0-1.9-1.6-3.5-3.5-3.5s-3.5,1.6-3.5,3.5V117h-7.9v-8
		c0-1.9-1.6-3.5-3.5-3.5s-3.5,1.6-3.5,3.5v8h-7.9v-15.8c0-1.9-1.6-3.5-3.5-3.5s-3.5,1.6-3.5,3.5V117h-7.9v-8c0-1.9-1.6-3.5-3.5-3.5
		s-3.5,1.6-3.5,3.5v8H87v-15.8c0-1.9-1.6-3.5-3.5-3.5s-3.5,1.6-3.5,3.5V117h-7.9v-8c0-1.9-1.6-3.5-3.5-3.5s-3.5,1.6-3.5,3.5v8h-7.9
		v-15.8c0-1.9-1.6-3.5-3.5-3.5s-3.5,1.6-3.5,3.5V117H44c-1.9,0-3.5,1.6-3.5,3.5S42.1,124,44,124z"/>
	<linearGradient id="XMLID_6_" gradientUnits="userSpaceOnUse" x1="17.5" y1="68.821" x2="239.0023" y2="68.821">
		<stop  offset="0" style="stop-color:#C0392B"/>
		<stop  offset="1" style="stop-color:#8E44AD"/>
	</linearGradient>
	<path id="XMLID_61_" class="st3" d="M186,83.8l16.9-16.9l-18-12.9H70c-1.9,0-3.5,1.6-3.5,3.5s1.6,3.5,3.5,3.5h101v15.9H57.3v-7.9
		c0-1.9-1.6-3.5-3.5-3.5s-3.5,1.6-3.5,3.5v14.9H186z M178,60.9h4.6l9.5,6.8l-9.1,9.1H178V60.9z"/>
	<linearGradient id="XMLID_7_" gradientUnits="userSpaceOnUse" x1="17.5" y1="68.8208" x2="239.0023" y2="68.8208">
		<stop  offset="0" style="stop-color:#C0392B"/>
		<stop  offset="1" style="stop-color:#8E44AD"/>
	</linearGradient>
	<path id="XMLID_62_" class="st4" d="M61.3,68.8c0,1.9,1.6,3.5,3.5,3.5h90.5c1.9,0,3.5-1.6,3.5-3.5s-1.6-3.5-3.5-3.5H64.8
		C62.8,65.3,61.3,66.9,61.3,68.8z"/>
	<linearGradient id="XMLID_8_" gradientUnits="userSpaceOnUse" x1="17.5" y1="57.3921" x2="239.0023" y2="57.3921">
		<stop  offset="0" style="stop-color:#C0392B"/>
		<stop  offset="1" style="stop-color:#8E44AD"/>
	</linearGradient>
	<path id="XMLID_63_" class="st5" d="M53.8,60.9h6.8c1.9,0,3.5-1.6,3.5-3.5s-1.6-3.5-3.5-3.5h-6.8c-1.9,0-3.5,1.6-3.5,3.5
		S51.8,60.9,53.8,60.9z"/>
</g>
</svg>
